<svg width="12" height="12" viewBox="0 0 12 12" fill="none" xmlns="http://www.w3.org/2000/svg">
<circle cx="6" cy="6" r="6" fill="white"/>
<path d="M3 4V4.2291V8.0709V8.3H9V8.0709V4.2291V4H3ZM6.6625 6.2064L6.1179 6.7536C6.0517 6.8151 5.9481 6.815 5.8847 6.7562L5.3374 6.2064L5.3422 6.2017L3.3647 4.2H8.6366L6.6577 6.2018L6.6625 6.2064ZM5.0524 6.2033L3.2 7.9855V4.3423L5.0524 6.2033ZM5.1934 6.345L5.7457 6.8999C5.8166 6.966 5.9076 6.9992 5.999 6.9992C6.0913 6.9992 6.184 6.9653 6.2571 6.8972L6.8067 6.345L8.6304 8.1H3.3686L5.1934 6.345ZM6.9477 6.2034L8.8 4.3422V7.9855L6.9477 6.2034Z" fill="black"/>
</svg>
