<svg width="12" height="12" viewBox="0 0 12 12" fill="none" xmlns="http://www.w3.org/2000/svg">
<circle cx="6" cy="6" r="6" fill="white"/>
<path d="M8.97301 7.78262L8.94314 7.69262C8.87241 7.48235 8.64058 7.26305 8.42759 7.20527L7.63932 6.98989C7.42555 6.93173 7.12062 7.00994 6.96422 7.16636L6.67893 7.4517C5.64212 7.17149 4.8291 6.3583 4.54932 5.3215L4.83462 5.03615C4.99103 4.87972 5.06921 4.57513 5.01106 4.36133L4.79611 3.57252C4.73795 3.35911 4.51829 3.12723 4.30846 3.05726L4.21847 3.027C4.00824 2.95704 3.70841 3.0278 3.55203 3.18421L3.12527 3.61144C3.04903 3.68729 3.00031 3.90424 3.00031 3.90503C2.98538 5.26018 3.51665 6.5658 4.47506 7.5244C5.43111 8.48062 6.7316 9.01121 8.08257 8.99982C8.08964 8.99982 8.31283 8.95187 8.38907 8.876L8.81583 8.44917C8.97222 8.29276 9.04295 7.9929 8.97301 7.78262Z" fill="black"/>
</svg>
